<?xml version="1.0" standalone="no"?>
<!DOCTYPE svg PUBLIC "-//W3C//DTD SVG 20010904//EN"
 "http://www.w3.org/TR/2001/REC-SVG-20010904/DTD/svg10.dtd">
<svg version="1.0" xmlns="http://www.w3.org/2000/svg"
 width="225.000000pt" height="225.000000pt" viewBox="0 0 225.000000 225.000000"
 preserveAspectRatio="xMidYMid meet">

<g transform="translate(0.000000,225.000000) scale(0.100000,-0.100000)"
fill="#000000" stroke="none">
<path d="M975 2239 c-366 -46 -713 -302 -870 -642 -136 -294 -136 -650 0 -944
103 -224 306 -430 529 -538 373 -181 826 -140 1152 103 570 425 621 1235 108
1722 -248 236 -574 342 -919 299z m291 -100 c320 -44 607 -246 760 -533 158
-298 164 -639 14 -936 -41 -83 -119 -195 -165 -240 l-35 -34 0 517 0 517 -355
0 -355 0 0 -665 0 -665 -39 0 c-78 0 -71 -69 -71 721 l0 709 -50 0 -50 0 0 56
0 56 -50 -4 -50 -3 0 103 0 102 -102 0 -103 0 0 -102 0 -101 -50 -1 -50 -1 -3
-52 -3 -53 -50 0 -49 0 0 -567 -1 -568 -46 50 c-203 221 -297 539 -248 840 89
550 602 931 1151 854z m-346 -859 l0 -50 -205 0 -205 0 0 50 0 50 205 0 205 0
0 -50z m510 -55 l0 -105 -100 0 -100 0 0 105 0 105 100 0 100 0 0 -105z m310
0 l0 -106 -102 3 -103 3 -3 103 -3 102 106 0 105 0 0 -105z m-820 -150 l0 -55
-205 0 -205 0 0 55 0 55 205 0 205 0 0 -55z m510 -155 l0 -100 -100 0 -100 0
0 100 0 100 100 0 100 0 0 -100z m310 0 l0 -100 -105 0 -105 0 0 100 0 100
105 0 105 0 0 -100z m-820 -50 l0 -50 -205 0 -205 0 0 50 0 50 205 0 205 0 0
-50z m0 -205 l0 -55 -205 0 -205 0 0 55 0 55 205 0 205 0 0 -55z m510 -50 l0
-105 -100 0 -100 0 0 105 0 105 100 0 100 0 0 -105z m310 0 l0 -105 -105 0
-105 0 0 105 0 105 105 0 105 0 0 -105z m-920 -336 l0 -130 -22 6 c-13 4 -60
24 -105 45 l-83 39 0 86 0 85 105 0 105 0 0 -131z m608 -1 l-3 -132 -42 -12
c-23 -7 -67 -16 -97 -19 l-56 -7 0 151 0 151 100 0 101 0 -3 -132z m312 80 l0
-53 -58 -36 c-56 -36 -136 -79 -147 -79 -3 0 -5 50 -5 110 l0 110 105 0 105 0
0 -52z"/>
</g>
</svg>
